<?xml version="1.0" standalone="no"?>
<!DOCTYPE svg PUBLIC "-//W3C//DTD SVG 20010904//EN"
 "http://www.w3.org/TR/2001/REC-SVG-20010904/DTD/svg10.dtd">
<svg version="1.0" xmlns="http://www.w3.org/2000/svg"
 width="800.000000pt" height="703.000000pt" viewBox="0 0 800.000000 703.000000"
 preserveAspectRatio="xMidYMid meet">

<g transform="translate(0.000000,703.000000) scale(0.100000,-0.100000)"
fill="#000000" stroke="none">
<path d="M4815 4960 c3 -5 8 -10 11 -10 2 0 4 5 4 10 0 6 -5 10 -11 10 -5 0
-7 -4 -4 -10z"/>
<path d="M4876 4945 c29 -29 30 -30 37 -11 4 10 1 13 -7 10 -7 -3 -19 2 -26
11 -7 8 -16 15 -21 15 -4 0 3 -11 17 -25z"/>
<path d="M4916 4914 c-3 -9 -12 -14 -20 -11 -8 3 -22 -3 -31 -13 -15 -16 -15
-22 -5 -35 8 -10 9 -15 1 -15 -6 0 -11 -4 -11 -10 0 -5 7 -7 15 -4 10 4 15 0
15 -14 0 -15 -9 -21 -40 -26 -32 -5 -40 -11 -40 -27 0 -11 -4 -18 -9 -14 -5 3
-12 -4 -16 -15 -3 -11 -11 -20 -16 -20 -6 0 -17 -6 -25 -14 -8 -8 -14 -19 -14
-25 0 -5 -9 -13 -20 -16 -11 -3 -20 -11 -20 -16 0 -5 -9 -9 -20 -9 -15 0 -20
-7 -20 -26 0 -14 -4 -23 -9 -19 -5 3 -12 -4 -16 -15 -3 -11 -11 -20 -17 -20
-5 0 -23 -14 -40 -32 -27 -29 -28 -33 -11 -39 14 -6 12 -8 -10 -8 -20 -1 -26
-5 -21 -13 4 -7 4 -10 0 -6 -5 4 -23 -2 -42 -12 -33 -19 -52 -13 -38 13 4 6
-2 4 -12 -6 -18 -17 -18 -18 8 -42 31 -29 35 -30 41 -12 2 6 3 3 1 -9 -3 -16
40 -65 171 -200 l174 -179 263 263 263 263 -195 188 c-116 113 -200 187 -208
184 -7 -3 -11 -12 -8 -19 6 -16 -10 -19 -19 -3 -4 5 1 19 11 30 9 10 12 19 7
19 -6 0 -14 -7 -17 -16z m-15 -44 c6 0 7 -4 4 -10 -12 -19 -25 -10 -24 18 1
16 3 20 6 10 2 -10 9 -18 14 -18z m99 -22 c0 -5 -11 2 -25 16 -14 14 -25 28
-25 32 0 4 11 -3 25 -16 14 -13 25 -27 25 -32z"/>
<path d="M4460 4485 c-11 -13 -10 -14 4 -9 9 3 16 10 16 15 0 13 -6 11 -20 -6z"/>
<path d="M3145 3730 l-259 -259 122 -118 c67 -65 122 -117 122 -116 0 1 18
-17 39 -40 32 -34 42 -40 52 -29 7 6 17 12 23 12 5 0 1 -6 -10 -14 -18 -14
-18 -16 15 -50 27 -28 38 -33 52 -26 28 16 34 12 14 -10 -10 -11 -14 -20 -9
-20 5 0 20 12 34 27 14 15 19 23 13 19 -7 -4 -25 0 -40 8 -16 8 -25 16 -20 17
4 1 10 2 15 3 4 1 13 5 20 9 7 5 12 4 12 -3 0 -6 5 -8 10 -5 6 3 10 17 10 31
0 13 5 24 11 24 6 0 19 10 30 23 10 12 18 16 19 10 0 -7 -5 -13 -12 -13 -6 0
-8 -3 -5 -6 11 -12 37 18 37 42 0 18 5 24 23 24 13 0 32 9 42 20 10 11 13 20
7 20 -7 0 -12 -4 -12 -10 0 -5 -5 -10 -11 -10 -17 0 1 21 27 30 13 5 29 21 34
34 9 26 30 44 30 27 0 -6 -4 -11 -10 -11 -5 0 -10 -5 -10 -12 0 -6 9 -3 20 7
11 10 20 29 20 42 0 17 6 23 23 23 13 0 32 9 42 20 10 11 13 20 7 20 -7 0 -12
-4 -12 -10 0 -5 -6 -10 -12 -10 -7 1 -3 9 10 19 12 11 22 24 22 30 0 6 7 11
15 11 8 0 15 6 15 13 0 8 4 7 10 -3 8 -12 11 -13 19 -1 5 7 6 23 3 35 -5 18
-3 19 10 8 14 -11 19 -9 32 10 9 12 16 17 16 11 0 -6 8 -14 17 -17 24 -10 6
10 -177 198 -222 229 -220 226 -228 226 -4 0 -124 -117 -267 -260z m556 -47
c13 -16 12 -17 -3 -4 -17 13 -22 21 -14 21 2 0 10 -8 17 -17z m73 -100 c-16
-16 -16 -16 -9 6 5 16 4 21 -4 17 -7 -4 -9 -1 -5 8 5 14 8 14 21 1 13 -13 12
-17 -3 -32z m-499 -446 c0 -8 4 -19 8 -23 4 -4 7 -12 7 -18 0 -6 -7 -3 -15 7
-7 11 -11 26 -8 35 5 12 2 14 -11 9 -11 -4 -15 -3 -11 4 10 14 30 5 30 -14z"/>
<path d="M3795 3540 c3 -5 10 -10 16 -10 5 0 9 5 9 10 0 6 -7 10 -16 10 -8 0
-12 -4 -9 -10z"/>
<path d="M3760 3532 c0 -12 19 -26 26 -19 2 2 -2 10 -11 17 -9 8 -15 8 -15 2z"/>
<path d="M3336 3061 c-15 -17 -15 -19 1 -32 17 -13 17 -13 3 5 -13 18 -13 19
0 14 11 -4 16 0 16 13 0 23 1 23 -20 0z"/>
<path d="M6350 1945 c0 -84 -5 -96 -28 -73 -7 7 -38 13 -71 13 -48 0 -66 -5
-99 -29 -116 -80 -116 -297 -1 -373 54 -36 117 -41 169 -14 33 17 40 18 40 6
0 -12 15 -15 75 -15 l75 0 0 285 0 285 -80 0 -80 0 0 -85z m-22 -203 c40 -26
31 -130 -13 -150 -63 -29 -113 46 -81 121 13 32 19 37 48 37 18 0 39 -4 46 -8z"/>
<path d="M5241 1999 c-192 -59 -254 -334 -106 -473 54 -51 100 -70 186 -74 88
-5 157 19 205 69 l28 30 -51 51 -51 51 -31 -26 c-39 -33 -64 -40 -105 -33 -82
16 -124 135 -76 214 24 40 80 66 121 57 16 -4 43 -18 60 -32 l31 -26 51 51 51
51 -20 22 c-43 48 -103 72 -183 75 -42 2 -91 -1 -110 -7z"/>
<path d="M1257 1993 c-4 -3 -7 -125 -7 -270 l0 -263 85 0 85 0 0 270 0 270
-78 0 c-43 0 -82 -3 -85 -7z"/>
<path d="M1695 1870 c-47 -24 -45 -24 -45 -5 0 12 -15 15 -75 15 l-75 0 0
-210 0 -210 80 0 80 0 0 118 c0 130 11 162 55 162 37 0 45 -28 45 -159 l0
-121 80 0 80 0 0 121 c0 136 7 159 51 159 41 0 49 -27 49 -166 l0 -115 78 3
77 3 -1 145 c0 169 -10 208 -61 247 -30 23 -46 28 -93 28 -47 0 -63 -5 -94
-29 l-37 -28 -22 20 c-48 45 -111 53 -172 22z"/>
<path d="M2445 1871 c-47 -25 -45 -25 -45 -6 0 12 -15 15 -75 15 l-75 0 0
-210 0 -210 80 0 80 0 0 128 c0 138 5 152 51 152 38 0 49 -39 49 -171 l0 -109
74 0 74 0 3 123 c3 86 8 129 18 140 17 22 67 22 75 1 3 -9 6 -72 6 -140 l0
-124 80 0 80 0 0 152 c0 168 -12 212 -68 253 -42 31 -129 27 -177 -7 l-38 -27
-32 25 c-46 35 -110 41 -160 15z"/>
<path d="M3142 1880 c-44 -10 -94 -46 -122 -87 -40 -59 -47 -159 -14 -224 60
-120 249 -157 358 -71 l24 18 -39 44 c-36 40 -40 43 -64 32 -40 -18 -99 -15
-118 6 -10 10 -17 22 -17 25 0 4 61 7 135 7 l135 0 0 38 c0 66 -20 115 -65
158 -58 56 -129 74 -213 54z m110 -127 c35 -32 23 -43 -47 -43 -69 0 -78 7
-45 40 24 24 67 26 92 3z"/>
<path d="M3675 1870 c-47 -24 -55 -25 -55 -5 0 12 -15 15 -75 15 l-75 0 0
-210 0 -210 79 0 79 0 3 123 c4 139 12 157 65 157 30 0 34 -4 43 -37 6 -21 11
-84 11 -140 l0 -103 75 0 75 0 0 155 c0 186 -11 219 -83 254 -54 26 -92 27
-142 1z"/>
<path d="M4069 1874 c-64 -19 -109 -71 -109 -124 0 -81 34 -113 141 -133 55
-10 75 -18 77 -30 3 -14 -5 -17 -46 -17 -27 0 -69 7 -92 15 -23 8 -43 15 -45
15 -5 0 -38 -110 -34 -114 3 -3 31 -12 64 -21 157 -40 291 11 302 117 8 80
-33 121 -145 141 -79 15 -91 22 -75 38 11 11 93 8 144 -6 25 -6 28 -4 44 45
20 61 18 63 -58 80 -63 13 -112 12 -168 -6z"/>
<path d="M4507 1876 c-133 -48 -187 -205 -111 -322 70 -108 250 -139 341 -59
l28 24 -41 42 c-36 35 -44 40 -62 30 -36 -19 -100 -13 -124 12 l-23 22 143 3
142 3 0 24 c0 13 -5 47 -11 76 -25 118 -161 188 -282 145z m127 -128 c9 -12
16 -26 16 -30 0 -5 -29 -8 -65 -8 -69 0 -79 8 -48 42 23 26 78 24 97 -4z"/>
<path d="M5719 1877 c-53 -20 -95 -52 -121 -95 -19 -30 -23 -51 -23 -113 0
-65 4 -81 27 -117 15 -22 49 -54 75 -69 88 -52 222 -34 290 39 70 75 70 221 0
296 -54 58 -174 87 -248 59z m125 -149 c21 -30 20 -91 -2 -118 -41 -51 -112
-13 -112 59 0 52 23 81 65 81 24 0 39 -7 49 -22z"/>
<path d="M6718 1878 c-46 -12 -117 -72 -134 -115 -20 -46 -17 -140 5 -189 54
-119 250 -164 354 -80 l28 22 -39 44 c-37 42 -41 44 -66 32 -15 -6 -41 -12
-59 -12 -33 0 -77 23 -77 41 0 5 57 9 135 9 l135 0 0 38 c0 154 -130 251 -282
210z m114 -125 c34 -31 23 -43 -42 -43 -53 0 -60 2 -60 20 0 38 68 54 102 23z"/>
<path d="M3640 1180 c0 -5 5 -10 10 -10 6 0 10 5 10 10 0 6 -4 10 -10 10 -5 0
-10 -4 -10 -10z"/>
<path d="M3895 1180 c-3 -5 1 -10 10 -10 9 0 13 5 10 10 -3 6 -8 10 -10 10 -2
0 -7 -4 -10 -10z"/>
<path d="M4230 1094 c0 -61 4 -93 10 -89 6 3 10 46 10 96 0 53 -4 89 -10 89
-6 0 -10 -39 -10 -96z"/>
<path d="M5102 1178 c-7 -7 -12 -17 -12 -24 0 -7 -6 -15 -12 -18 -10 -5 -10
-7 0 -12 7 -4 12 -28 12 -67 0 -33 3 -57 7 -54 4 4 5 32 4 62 -2 50 0 55 18
55 12 0 21 5 21 10 0 6 -9 10 -20 10 -11 0 -20 4 -20 9 0 14 28 33 40 26 5 -3
10 -1 10 4 0 15 -33 14 -48 -1z"/>
<path d="M5975 1180 c-3 -5 1 -10 9 -10 9 0 16 5 16 10 0 6 -4 10 -9 10 -6 0
-13 -4 -16 -10z"/>
<path d="M1910 1152 c-36 -36 -39 -77 -10 -115 45 -56 140 -40 140 23 0 40
-18 38 -22 -2 -3 -30 -6 -33 -40 -36 -45 -4 -78 24 -78 67 0 60 53 89 120 67
19 -6 22 -5 14 4 -6 6 -30 14 -52 17 -36 5 -45 2 -72 -25z"/>
<path d="M3440 1089 l0 -91 57 4 c46 4 61 10 80 32 32 38 30 80 -6 117 -25 24
-37 29 -80 29 l-51 0 0 -91z m123 52 c27 -27 25 -80 -4 -103 -13 -11 -38 -18
-65 -18 l-44 0 0 68 c0 38 3 72 8 76 13 14 84 -2 105 -23z"/>
<path d="M4378 1173 l32 -4 0 -79 c0 -43 5 -82 10 -85 6 -4 10 25 10 79 l0 85
33 4 c17 2 -2 4 -43 4 -41 0 -60 -2 -42 -4z"/>
<path d="M2240 1143 c-10 -12 -11 -18 -2 -21 7 -2 12 -23 12 -52 0 -40 4 -51
21 -61 15 -8 24 -8 32 0 8 8 5 11 -11 11 -20 0 -22 5 -22 49 0 43 3 50 23 54
l22 4 -22 8 c-13 4 -23 11 -23 16 0 14 -13 10 -30 -8z"/>
<path d="M3086 1139 c-17 -17 -18 -19 -3 -19 14 0 17 -10 17 -49 0 -53 18 -78
47 -66 16 7 15 9 -7 14 -22 6 -25 13 -28 54 -3 42 -1 47 17 47 12 0 21 5 21
10 0 6 -9 10 -19 10 -11 0 -21 4 -23 9 -1 4 -12 0 -22 -10z"/>
<path d="M3960 1143 c-10 -12 -11 -18 -2 -21 7 -2 12 -23 12 -52 0 -40 4 -51
21 -61 15 -8 24 -8 32 0 8 8 5 11 -11 11 -20 0 -22 5 -22 49 0 43 3 50 23 54
l22 4 -22 8 c-13 4 -23 11 -23 16 0 14 -13 10 -30 -8z"/>
<path d="M5860 1143 c-10 -12 -11 -18 -2 -21 7 -2 12 -22 12 -47 0 -26 6 -50
16 -59 18 -18 24 -19 44 -6 12 8 9 10 -12 10 -27 0 -28 2 -28 49 0 43 3 50 23
54 l22 4 -22 8 c-13 4 -23 11 -23 16 0 14 -13 10 -30 -8z"/>
<path d="M2113 1133 c-36 -7 -27 -18 14 -18 28 0 38 -5 41 -17 3 -14 -3 -18
-23 -18 -37 0 -65 -17 -65 -41 0 -26 41 -45 67 -30 14 7 23 7 31 -1 9 -9 12 2
12 44 0 47 -4 59 -22 72 -12 9 -25 15 -28 15 -3 -1 -15 -4 -27 -6z m55 -85
c-2 -18 -11 -24 -35 -26 -27 -3 -33 0 -33 17 0 21 12 29 48 30 19 1 23 -4 20
-21z"/>
<path d="M2366 1119 c-21 -16 -26 -28 -24 -52 4 -40 45 -71 81 -62 37 10 34
23 -3 17 -32 -5 -60 11 -60 34 0 10 15 14 54 14 49 0 54 2 49 20 -11 43 -60
58 -97 29z m72 -11 c21 -21 13 -28 -33 -28 -32 0 -45 4 -45 14 0 25 57 35 78
14z"/>
<path d="M2675 1104 c-9 -21 -20 -48 -24 -59 -10 -22 -8 -24 -41 60 -14 37
-27 31 -45 -25 -9 -28 -20 -48 -24 -46 -4 3 -14 23 -21 46 -7 23 -18 44 -23
47 -11 7 -2 -27 25 -87 l20 -45 19 40 c10 22 20 49 24 60 4 16 10 8 28 -35 12
-30 26 -54 31 -53 5 1 20 30 32 65 25 68 24 95 -1 32z"/>
<path d="M2743 1130 c-33 -13 -29 -17 19 -16 33 1 43 -3 46 -16 3 -14 -3 -18
-23 -18 -14 0 -35 -5 -46 -10 -45 -25 -1 -83 46 -62 16 7 26 7 34 -1 8 -8 11
4 11 45 0 47 -4 59 -22 72 -25 18 -33 19 -65 6z m65 -82 c-2 -17 -11 -24 -32
-26 -35 -4 -53 18 -29 36 9 6 28 12 41 12 19 0 23 -5 20 -22z"/>
<path d="M2954 1086 c-14 -31 -29 -54 -33 -51 -5 2 -16 25 -25 50 -10 25 -22
45 -27 45 -7 0 33 -106 46 -118 12 -12 -19 -42 -43 -42 -24 -1 -25 -2 -9 -11
10 -6 25 -8 33 -5 16 6 98 175 90 184 -3 3 -17 -20 -32 -52z"/>
<path d="M3222 1130 c-53 -22 -51 -97 3 -122 49 -22 102 27 88 81 -4 17 -51
53 -65 50 -2 0 -13 -4 -26 -9z m70 -35 c17 -37 -3 -75 -40 -75 -35 0 -52 16
-52 50 0 34 17 50 52 50 21 0 32 -7 40 -25z"/>
<path d="M3738 1124 c-22 -11 -28 -22 -28 -48 0 -48 29 -70 79 -62 39 6 40 5
32 -16 -7 -19 -16 -23 -55 -23 -49 0 -60 -9 -23 -19 70 -19 97 9 97 102 0 58
-3 68 -17 68 -10 0 -27 3 -38 7 -11 3 -32 -1 -47 -9z m71 -18 c21 -25 9 -69
-21 -80 -50 -17 -89 42 -52 78 19 20 58 21 73 2z"/>
<path d="M4093 1130 c-34 -14 -28 -20 13 -13 25 4 39 2 45 -8 15 -24 10 -29
-24 -29 -18 0 -38 -5 -45 -12 -33 -33 9 -80 54 -59 18 8 24 8 24 -1 0 -9 3 -9
11 -1 7 7 9 29 4 63 -6 42 -11 53 -32 61 -13 5 -25 9 -26 8 -1 0 -12 -4 -24
-9z m67 -73 c0 -20 -21 -37 -46 -37 -29 0 -39 16 -24 35 15 19 70 20 70 2z"/>
<path d="M4643 1130 c-33 -13 -28 -17 19 -16 33 1 43 -3 46 -16 3 -14 -3 -18
-26 -18 -45 0 -62 -10 -62 -36 0 -31 34 -50 66 -35 16 7 24 7 24 0 0 -6 5 -7
11 -3 13 8 7 100 -7 113 -16 15 -48 20 -71 11z m67 -73 c0 -20 -21 -37 -46
-37 -29 0 -39 16 -24 35 15 19 70 20 70 2z"/>
<path d="M4822 1129 c-13 -5 -28 -7 -33 -3 -5 3 -9 -24 -9 -62 0 -75 11 -82
14 -9 2 51 16 67 56 63 23 -3 25 -8 28 -53 5 -72 22 -82 22 -13 0 47 -4 59
-22 72 -25 18 -25 18 -56 5z"/>
<path d="M4962 1124 c-29 -20 -14 -50 31 -62 19 -5 33 -16 35 -27 4 -16 -1
-17 -42 -13 -51 6 -63 -7 -16 -17 21 -5 39 -2 55 9 39 25 30 44 -30 63 -44 14
-39 38 8 38 41 0 49 9 15 19 -31 8 -31 8 -56 -10z"/>
<path d="M5202 1130 c-78 -32 -28 -151 51 -121 48 18 49 98 2 119 -14 7 -27
12 -28 11 -1 0 -12 -4 -25 -9z m62 -26 c32 -31 11 -84 -32 -84 -35 0 -52 16
-52 50 0 14 5 31 12 38 17 17 54 15 72 -4z"/>
<path d="M5375 1131 c-11 -5 -24 -7 -30 -4 -6 2 -8 -22 -6 -64 l5 -68 6 50 c6
57 15 75 36 75 8 0 14 5 14 10 0 6 -1 10 -2 9 -2 0 -12 -4 -23 -8z"/>
<path d="M5440 1072 c0 -46 4 -71 10 -67 6 3 10 26 10 49 0 49 17 69 52 64 21
-3 23 -9 26 -61 3 -66 22 -69 22 -3 0 49 17 69 52 64 20 -3 23 -9 26 -55 4
-65 22 -71 22 -8 0 68 -42 103 -85 71 -16 -12 -22 -12 -42 2 -19 12 -29 13
-50 3 -21 -10 -28 -9 -34 1 -5 8 -9 -18 -9 -60z"/>
<path d="M5728 1133 c-31 -8 -19 -23 12 -17 18 4 36 1 45 -6 24 -20 18 -30
-19 -30 -33 0 -66 -21 -66 -40 0 -5 11 -17 25 -26 20 -13 31 -15 50 -6 18 8
25 8 29 -1 2 -7 5 14 5 45 1 48 -2 59 -21 72 -23 16 -29 17 -60 9z m67 -73
c10 -16 -15 -40 -42 -40 -27 0 -43 28 -22 41 19 12 56 11 64 -1z"/>
<path d="M5983 1070 c0 -41 2 -58 4 -37 2 20 2 54 0 75 -2 20 -4 3 -4 -38z"/>
<path d="M6072 1130 c-63 -26 -37 -130 33 -130 23 0 65 45 65 70 0 23 -42 70
-62 69 -7 0 -23 -4 -36 -9z m66 -22 c7 -7 12 -24 12 -38 0 -34 -17 -50 -52
-50 -37 0 -57 38 -40 75 13 27 58 35 80 13z"/>
<path d="M6255 1131 c-11 -5 -26 -6 -32 -4 -16 6 -18 -112 -3 -122 6 -4 10 13
10 42 0 54 12 73 46 73 31 0 42 -18 47 -75 l3 -50 2 57 c2 49 -1 59 -20 72
-25 18 -25 18 -53 7z"/>
<path d="M3640 1071 c0 -33 5 -63 10 -66 6 -4 10 18 10 59 0 37 -4 66 -10 66
-6 0 -10 -26 -10 -59z"/>
<path d="M3903 1065 c0 -38 2 -53 4 -32 2 20 2 52 0 70 -2 17 -4 1 -4 -38z"/>
<path d="M4520 1068 c0 -69 18 -78 22 -11 2 39 7 50 28 60 24 12 24 12 -12 11
l-38 -1 0 -59z"/>
</g>
</svg>
